/* XPM */
static char * capacitance_xpm[] = {
"16 16 3 1",
" 	g None",
".	g #FFFFFF",
"+	g #000000",
".......+........",
".......+........",
".......+........",
".......+........",
".......+........",
".......+........",
".+++++++++++++..",
"................",
"................",
"................",
".+++++++++++++..",
".......+........",
".......+........",
".......+........",
".......+........",
".......+........"};

