/* XPM */
static char * coloradd_xpm[] = {
"16 16 6 1",
" 	g None",
"=	g #000000",
".	g #071FF9",
"+	g #FF0001",
"@	g #89CE77",
"#	g #F8E008",
"                ",
"   ............ ",
"  ............  ",
" ......==....   ",
"   ++++==++++++ ",
"  +++++==+++++  ",
" ++++++==++++   ",
"   ==========@@ ",
"  @==========@  ",
" @@@@@@==@@@@   ",
"   ####==###### ",
"  #####==#####  ",
" ######==####   ",
"                ",
"                ",
"                "};

