/* XPM */
static char * contact_xpm[] = {
"16 16 4 1",
" 	g None",
".	g #071FF9",
"+	g #A5A4A6",
"@	g #F8E008",
"                ",
"                ",
"  ............  ",
"  ............  ",
"  ............  ",
"++++++....++++++",
"++++++....++++++",
"++++++....++++++",
"++++++....++++++",
"++++++....++++++",
"++++++....++++++",
"++++++....++++++",
"  @@@@@@@@@@@@  ",
"  @@@@@@@@@@@@  ",
"  @@@@@@@@@@@@  ",
"                "};

