/* XPM */
static char * layers_xpm[] = {
"16 16 5 1",
" 	g None",
".	g #071FF9",
"+	g #FF0001",
"@	g #89CE77",
"#	g #F8E008",
"                ",
"   ............ ",
"  ............  ",
" ............   ",
"   ++++++++++++ ",
"  ++++++++++++  ",
" ++++++++++++   ",
"   @@@@@@@@@@@@ ",
"  @@@@@@@@@@@@  ",
" @@@@@@@@@@@@   ",
"   ############ ",
"  ############  ",
" ############   ",
"                ",
"                ",
"                "};

