/* XPM */
static char * resize_xpm[] = {
"16 16 3 1",
" 	g #FFFFFF",
".	g #0000FF",
"X	g #000000",
"                ",
"                ",
"                ",
".. .......... ..",
".  ..........  .",
".  ..........  .",
".. .......... ..",
"                ",
"  X          X  ",
" X            X ",
"XXXXXXXXXXXXXXXX",
" X            X ",
"  X          X  ",
"                ",
"                ",
"                "};

