/* XPM */
static const char * editgenerate_xpm[] = {
"16 16 6 1",
" 	g None",
".	g #000000",
"+	g #FFFFFF",
"@	g #585858",
"#	g #C0C0C0",
"$	g #A0A0A4",
"                ",
"     ......     ",
"  ...+@#+@+...  ",
" .#+@#@++@+@++. ",
" .###++##++#++. ",
" ...+##++##+... ",
".#####+..++##++.",
".$$.###..##+.##.",
".$.$######+##.#.",
"..+$#########$..",
" .+$.#.##.$.#$. ",
" .+.+$.##.$$.$. ",
" ...+$.$$.$$... ",
"   .+$.##.$$.   ",
"   ....##....   ",
"      ....      "};
