/* XPM */
static const char * exit_xpm[] = {
"16 16 4 1",
" 	g None",
".	g #000000",
"+	g #BC6844",
"@	g #FF0001",
"                ",
"      ......... ",
"      .+++++++. ",
"      .+++++++. ",
"    @ .++...++. ",
"     @.+++++++. ",
"@@@@@@@+++++++. ",
"@@@@@@@@++++++. ",
"@@@@@@@+..++++. ",
"     @.+..++++. ",
"    @ .+++++++. ",
"      .+++++++. ",
"      .+++++++. ",
"      .+++++++. ",
"      ......... ",
"                "};
