/* XPM */
static const char * filesave_xpm[] = {
"16 16 5 1",
" 	g None",
".	g #000000",
"+	g #3719C9",
"@	g #FFFFFF",
"#	g #C1C1C1",
"                ",
" .............. ",
" .+@@@@@@@@@@+. ",
" .+@@@@@@@@@@+. ",
" .+@@@@@@@@@@+. ",
" .+@@@@@@@@@@+. ",
" .+@@@@@@@@@@+. ",
" .+@@@@@@@@@@+. ",
" .++++++++++++. ",
" .++.....+++++. ",
" .+.#####.++++. ",
" .+.#.###.++++. ",
" .+.#.###.++++. ",
" .+.#####.++++. ",
"  ............. ",
"                "};
