/* XPM */
static const char * fileopen_xpm[] = {
"16 16 4 1",
" 	g None",
".	g #000000",
"+	g #D8E428",
"@	g #D9C427",
"       .... .   ",
"      .    ..   ",
"  ...     ...   ",
" .+++.          ",
" .++++.......   ",
" .+++++++++++.  ",
" .++........... ",
" .++.@@@@@@@@@@.",
" .+.@@@@@@@@@@@.",
" .+.@@@@@@@@@@@.",
" ..@@@@@@@@@@@. ",
" ..@@@@@@@@@@@. ",
" .@@@@@@@@@@@.  ",
" .............  ",
"                ",
"                "};
