/* XPM */
static const char * filesaveas_xpm[] = {
"16 16 7 1",
" 	g None",
".	g #000000",
"+	g #3719C9",
"@	g #FFFFFF",
"#	g #EAA216",
"$	g #E5431B",
"%	g #C1C1C1",
"                ",
" .............. ",
" .+@@@@@@@@@@+. ",
" .+@@@@...@@@+. ",
" .+@@@@..#.@@+. ",
" .+@@@@.###.@+. ",
" .+@@@@@.###.+. ",
" .+@@@@@@.###.. ",
" .++++++++.###. ",
" .++.....++.#.$.",
" .+.%%%%%.++.$$.",
" .+.%.%%%.+++...",
" .+.%.%%%.++++. ",
" .+.%%%%%.++++. ",
"  ............. ",
"                "};
