/* XPM */
static const char * rowdelete_xpm[] = {
"16 16 5 1",
" 	g None",
".	g #000000",
"+	g #FFFFFF",
"@	g #FF0001",
"#	g #071FF9",
"                ",
"                ",
" .........      ",
" .+++++++.      ",
" .+++++++. @   @",
" .........  @ @ ",
" .#######.   @  ",
" .#######.  @ @ ",
" ......... @  @ ",
" .+++++++. @   @",
" .+++++++.     @",
" .........     @",
" .+++++++.      ",
" .+++++++.      ",
" .........      ",
"                "};
