/* XPM */
static const char * rowinsertbelow_xpm[] = {
"16 16 5 1",
" 	g None",
".	g #000000",
"+	g #FFFFFF",
"@	g #071FF9",
"#	g #FF0001",
"                ",
"                ",
" .........      ",
" .+++++++.      ",
" .+++++++.      ",
" .........      ",
" .@@@@@@@.      ",
" .@@@@@@@.   #  ",
" ......... ##   ",
"         #######",
"           ##   ",
" .........   #  ",
" .+++++++.      ",
" .+++++++.      ",
" .........      ",
"                "};
